<svg xmlns="http://www.w3.org/2000/svg" viewBox="0 0 85 85"><defs><style>.cls-1,.cls-2{fill:none;}.cls-2{stroke:#fff;stroke-linecap:round;stroke-linejoin:round;stroke-width:1.5px;}</style></defs><g id="Layer_2" data-name="Layer 2"><g id="disability_icons" data-name="disability icons"><path class="cls-1" d="M42.5,0c.7,0,1.39,0,2.09.05L46.67.2c.69.07,1.38.16,2.07.26s1.37.22,2,.36,1.36.28,2,.45,1.34.36,2,.56,1.32.42,2,.65,1.3.49,1.94.76,1.28.54,1.91.84,1.25.61,1.86.94,1.22.67,1.82,1,1.18.73,1.76,1.11,1.15.79,1.71,1.2,1.1.85,1.64,1.29S70.53,10.54,71,11s1,1,1.51,1.44,1,1,1.44,1.51.92,1,1.36,1.58.87,1.08,1.29,1.64.81,1.13,1.2,1.71.76,1.16,1.11,1.76.7,1.2,1,1.82.64,1.23.94,1.86.58,1.26.84,1.91.52,1.29.76,1.94.45,1.32.65,2,.39,1.34.56,2,.32,1.36.45,2,.26,1.37.36,2,.19,1.38.26,2.07.11,1.39.15,2.08,0,1.39,0,2.09,0,1.39,0,2.09-.09,1.38-.15,2.08-.16,1.38-.26,2.07-.22,1.37-.36,2-.28,1.36-.45,2-.36,1.34-.56,2-.42,1.32-.65,2-.49,1.3-.76,1.94-.54,1.28-.84,1.91-.61,1.25-.94,1.86-.67,1.22-1,1.82-.73,1.18-1.11,1.76-.79,1.15-1.2,1.71-.85,1.1-1.29,1.64S74.46,70.53,74,71s-.95,1-1.44,1.51-1,1-1.51,1.44-1,.92-1.58,1.36-1.08.87-1.64,1.29-1.13.81-1.71,1.2S65,78.6,64.35,79s-1.2.7-1.82,1-1.23.64-1.86.94-1.26.58-1.91.84-1.29.52-1.94.76-1.32.45-2,.65-1.34.39-2,.56-1.36.32-2,.45-1.37.26-2,.36-1.38.19-2.07.26L44.59,85c-.7,0-1.39,0-2.09,0s-1.39,0-2.09,0l-2.08-.15c-.69-.07-1.38-.16-2.07-.26s-1.37-.22-2-.36-1.36-.28-2-.45-1.34-.36-2-.56-1.32-.42-2-.65-1.3-.49-1.94-.76-1.28-.54-1.91-.84-1.25-.61-1.86-.94-1.22-.67-1.82-1-1.18-.73-1.76-1.11-1.15-.79-1.71-1.2-1.1-.85-1.64-1.29S14.47,74.46,14,74s-1-.95-1.51-1.44-1-1-1.44-1.51-.92-1-1.36-1.58-.87-1.08-1.29-1.64-.81-1.13-1.2-1.71S6.4,65,6.05,64.35s-.7-1.2-1-1.82-.64-1.23-.94-1.86-.58-1.26-.84-1.91-.52-1.29-.76-1.94-.45-1.32-.65-2-.39-1.34-.56-2-.32-1.36-.45-2-.26-1.37-.36-2S.27,47.36.2,46.67.09,45.28.05,44.59,0,43.2,0,42.5s0-1.39.05-2.09S.14,39,.2,38.33.36,37,.46,36.26s.22-1.37.36-2,.28-1.36.45-2,.36-1.34.56-2,.42-1.32.65-2,.49-1.3.76-1.94.54-1.28.84-1.91.61-1.25.94-1.86.67-1.22,1-1.82.73-1.18,1.11-1.76.79-1.15,1.2-1.71.85-1.1,1.29-1.64S10.54,14.47,11,14s1-1,1.44-1.51,1-1,1.51-1.44,1-.92,1.58-1.36,1.08-.87,1.64-1.29,1.13-.81,1.71-1.2,1.16-.76,1.76-1.11,1.2-.7,1.82-1,1.23-.64,1.86-.94,1.26-.58,1.91-.84,1.29-.52,1.94-.76,1.32-.45,2-.65,1.34-.39,2-.56,1.36-.32,2-.45,1.37-.26,2-.36S37.64.27,38.33.2L40.41.05C41.11,0,41.8,0,42.5,0Z"/><path class="cls-2" d="M28.55,35.52l3.8-2.33L36,30.94V48l.08,21a3.23,3.23,0,0,0,3.23,3.23h0A3.23,3.23,0,0,0,42.53,69V48.68"/><circle class="cls-2" cx="42.5" cy="17.86" r="5.1" transform="translate(15.35 55.12) rotate(-76.72)"/><line class="cls-2" x1="32.35" y1="72.24" x2="32.35" y2="33.19"/><line class="cls-2" x1="26.34" y1="47.61" x2="32.34" y2="47.61"/><path class="cls-2" d="M56.45,35.52,56.16,45a2.59,2.59,0,0,0,2.5,2.64h.07a2.57,2.57,0,0,0,2.57-2.5l.34-11.72a2.11,2.11,0,0,0-.11-.6,2.56,2.56,0,0,0-1.1-1.44l-9.17-5.64a6.71,6.71,0,0,0-4.79-.88,30.21,30.21,0,0,1-4.28.63,23.12,23.12,0,0,1-3.64-.56,6.64,6.64,0,0,0-4.88.85l-9.1,5.6a2.56,2.56,0,0,0-1.1,1.44,2.11,2.11,0,0,0-.11.6l.34,11.72a2.57,2.57,0,0,0,2.57,2.5h.07A2.59,2.59,0,0,0,28.84,45l-.29-9.45"/><path class="cls-2" d="M42.53,48l0,10.85c0,1.78,1.45,2.5,3.23,2.5h0c1.78,0,3.22-.72,3.22-2.5L49,48V30.94l3.65,2.25,3.8,2.33"/><line class="cls-2" x1="52.65" y1="33.19" x2="52.65" y2="72.24"/><line class="cls-2" x1="58.66" y1="47.61" x2="52.66" y2="47.61"/><line class="cls-2" x1="31.23" y1="72.24" x2="33.34" y2="72.24"/><line class="cls-2" x1="51.54" y1="72.24" x2="53.65" y2="72.24"/></g></g></svg>