<svg xmlns="http://www.w3.org/2000/svg" viewBox="0 0 85 85"><defs><style>.cls-1,.cls-2{fill:none;}.cls-2{stroke:#bf872b;stroke-linecap:round;stroke-linejoin:round;stroke-width:1.5px;}</style></defs><g id="Layer_2" data-name="Layer 2"><g id="Icons"><path class="cls-1" d="M42.5,0c.7,0,1.39,0,2.09.05L46.67.2c.69.07,1.38.16,2.07.26s1.37.22,2,.36,1.36.28,2,.45,1.34.36,2,.56,1.32.42,2,.65,1.3.49,1.94.76,1.28.54,1.91.84,1.25.61,1.86.94,1.22.67,1.82,1,1.18.73,1.76,1.11,1.15.79,1.71,1.2,1.1.85,1.64,1.29S70.53,10.54,71,11s1,1,1.51,1.44,1,1,1.44,1.51.92,1,1.36,1.58.87,1.08,1.29,1.64.81,1.13,1.2,1.71.76,1.16,1.11,1.76.7,1.2,1,1.82.64,1.23.94,1.86.58,1.26.84,1.91.52,1.29.76,1.94.45,1.32.65,2,.39,1.34.56,2,.32,1.36.45,2,.26,1.37.36,2,.19,1.38.26,2.07.11,1.39.15,2.08,0,1.39,0,2.09,0,1.39,0,2.09-.09,1.38-.15,2.08-.16,1.38-.26,2.07-.22,1.37-.36,2-.28,1.36-.45,2-.36,1.34-.56,2-.42,1.32-.65,2-.49,1.3-.76,1.94-.54,1.28-.84,1.91-.61,1.25-.94,1.86-.67,1.22-1,1.82-.73,1.18-1.11,1.76-.79,1.15-1.2,1.71-.85,1.1-1.29,1.64S74.46,70.53,74,71s-.95,1-1.44,1.51-1,1-1.51,1.44-1,.92-1.58,1.36-1.08.87-1.64,1.29-1.13.81-1.71,1.2S65,78.6,64.35,79s-1.2.7-1.82,1-1.23.64-1.86.94-1.26.58-1.91.84-1.29.52-1.94.76-1.32.45-2,.65-1.34.39-2,.56-1.36.32-2,.45-1.37.26-2,.36-1.38.19-2.07.26L44.59,85c-.7,0-1.39,0-2.09,0s-1.39,0-2.09,0l-2.08-.15c-.69-.07-1.38-.16-2.07-.26s-1.37-.22-2-.36-1.36-.28-2-.45-1.34-.36-2-.56-1.32-.42-2-.65-1.3-.49-1.94-.76-1.28-.54-1.91-.84-1.25-.61-1.86-.94-1.22-.67-1.82-1-1.18-.73-1.76-1.11-1.15-.79-1.71-1.2-1.1-.85-1.64-1.29S14.47,74.46,14,74s-1-.95-1.51-1.44-1-1-1.44-1.51-.92-1-1.36-1.58-.87-1.08-1.29-1.64-.81-1.13-1.2-1.71S6.4,65,6.05,64.35s-.7-1.2-1-1.82-.64-1.23-.94-1.86-.58-1.26-.84-1.91-.52-1.29-.76-1.94-.45-1.32-.65-2-.39-1.34-.56-2-.32-1.36-.45-2-.26-1.37-.36-2S.27,47.36.2,46.67.09,45.28.05,44.59,0,43.2,0,42.5s0-1.39.05-2.09S.14,39,.2,38.33.36,37,.46,36.26s.22-1.37.36-2,.28-1.36.45-2,.36-1.34.56-2,.42-1.32.65-2,.49-1.3.76-1.94.54-1.28.84-1.91.61-1.25.94-1.86.67-1.22,1-1.82.73-1.18,1.11-1.76.79-1.15,1.2-1.71.85-1.1,1.29-1.64S10.54,14.47,11,14s1-1,1.44-1.51,1-1,1.51-1.44,1-.92,1.58-1.36,1.08-.87,1.64-1.29,1.13-.81,1.71-1.2,1.16-.76,1.76-1.11,1.2-.7,1.82-1,1.23-.64,1.86-.94,1.26-.58,1.91-.84,1.29-.52,1.94-.76,1.32-.45,2-.65,1.34-.39,2-.56,1.36-.32,2-.45,1.37-.26,2-.36S37.64.27,38.33.2L40.41.05C41.11,0,41.8,0,42.5,0Z"/><polyline class="cls-2" points="48.43 24.98 53.5 24.98 55.09 30.28"/><path class="cls-2" d="M68,37.22c-.2-2.3-.92-3.52-3.1-4.24-1.74-.57-2.88-.9-2.88-.9-8-3.49-13.32-1-13.32-1l-3.25,6.62a1,1,0,0,1-1.09.53L21,33.45l-2.53,0c-1.43-.15-1.12.69-1.12,2v3.11l9.56.75a10.45,10.45,0,0,1,9.35,9.64V52.3H47c1.21,0,2-1.12,2.19-2.56.66-6,5.2-10.67,11-10.67a11.12,11.12,0,0,1,6.74,2h1.45S68.17,39.29,68,37.22Z"/><path class="cls-2" d="M47.79,32.92,28.88,31.37a1.43,1.43,0,0,0-1.45,1.42v2"/><path class="cls-2" d="M24.17,42.68a8.67,8.67,0,1,0,8.67,8.67A8.67,8.67,0,0,0,24.17,42.68Z"/><path class="cls-2" d="M24.17,47.78a3.57,3.57,0,1,0,3.57,3.57A3.57,3.57,0,0,0,24.17,47.78Z"/><path class="cls-2" d="M60.83,42.68a8.67,8.67,0,1,0,8.67,8.67A8.67,8.67,0,0,0,60.83,42.68Z"/><path class="cls-2" d="M60.83,47.78a3.57,3.57,0,1,0,3.57,3.57A3.57,3.57,0,0,0,60.83,47.78Z"/><line class="cls-2" x1="17.37" y1="38.52" x2="17.37" y2="40.33"/></g></g></svg>