<?xml version="1.0" encoding="UTF-8"?><svg id="Layer_2" xmlns="http://www.w3.org/2000/svg" viewBox="0 0 85 85"><defs><style>.cls-1,.cls-2{fill:none;}.cls-2{stroke:#231f20;stroke-miterlimit:10;stroke-width:1.5px;}</style></defs><g id="Icons"><g><path class="cls-1" d="M42.5,0c.7,0,1.39,.02,2.09,.05,.69,.03,1.39,.09,2.08,.15s1.38,.15,2.07,.26c.69,.1,1.37,.22,2.06,.36s1.36,.29,2.04,.46c.67,.17,1.34,.35,2.01,.56,.67,.2,1.33,.42,1.98,.65,.65,.23,1.3,.48,1.95,.75,.64,.27,1.28,.55,1.91,.85,.63,.3,1.25,.61,1.86,.94s1.22,.67,1.81,1.03c.6,.36,1.18,.73,1.76,1.12,.58,.39,1.15,.79,1.71,1.2,.56,.41,1.11,.84,1.64,1.28,.54,.44,1.06,.9,1.58,1.36,.52,.47,1.02,.95,1.51,1.44,.49,.49,.97,1,1.44,1.51,.47,.52,.92,1.04,1.36,1.58s.87,1.09,1.28,1.64c.41,.56,.81,1.13,1.2,1.71,.39,.58,.76,1.17,1.12,1.76,.36,.6,.7,1.2,1.03,1.81,.33,.61,.64,1.23,.94,1.86,.3,.63,.58,1.26,.85,1.91,.27,.64,.52,1.29,.75,1.95,.23,.65,.45,1.32,.65,1.98,.2,.67,.39,1.34,.56,2.01,.17,.67,.32,1.35,.46,2.04s.25,1.37,.36,2.06c.1,.69,.19,1.38,.26,2.07s.12,1.39,.15,2.08c.03,.69,.05,1.39,.05,2.09s-.02,1.39-.05,2.09c-.03,.69-.09,1.39-.15,2.08-.07,.69-.15,1.38-.26,2.07-.1,.69-.22,1.37-.36,2.06s-.29,1.36-.46,2.04c-.17,.67-.35,1.34-.56,2.01-.2,.67-.42,1.33-.65,1.98-.23,.65-.48,1.3-.75,1.95-.27,.64-.55,1.28-.85,1.91-.3,.63-.61,1.25-.94,1.86s-.67,1.22-1.03,1.81c-.36,.6-.73,1.18-1.12,1.76-.39,.58-.79,1.15-1.2,1.71-.41,.56-.84,1.11-1.28,1.64s-.9,1.06-1.36,1.58c-.47,.52-.95,1.02-1.44,1.51-.49,.49-1,.97-1.51,1.44-.52,.47-1.04,.92-1.58,1.36s-1.09,.87-1.64,1.28c-.56,.41-1.13,.81-1.71,1.2-.58,.39-1.17,.76-1.76,1.12-.6,.36-1.2,.7-1.81,1.03s-1.23,.64-1.86,.94c-.63,.3-1.26,.58-1.91,.85-.64,.27-1.29,.52-1.95,.75-.65,.23-1.32,.45-1.98,.65-.67,.2-1.34,.39-2.01,.56-.67,.17-1.35,.32-2.04,.46s-1.37,.25-2.06,.36c-.69,.1-1.38,.19-2.07,.26s-1.39,.12-2.08,.15c-.69,.03-1.39,.05-2.09,.05-.7,0-1.39-.02-2.09-.05-.69-.03-1.39-.09-2.08-.15s-1.38-.15-2.07-.26c-.69-.1-1.37-.22-2.06-.36s-1.36-.29-2.04-.46c-.67-.17-1.34-.35-2.01-.56-.67-.2-1.33-.42-1.98-.65-.65-.23-1.3-.48-1.95-.75-.64-.27-1.28-.55-1.91-.85-.63-.3-1.25-.61-1.86-.94-.61-.33-1.22-.67-1.81-1.03-.6-.36-1.18-.73-1.76-1.12-.58-.39-1.15-.79-1.71-1.2-.56-.41-1.11-.84-1.64-1.28s-1.06-.9-1.58-1.36c-.52-.47-1.02-.95-1.51-1.44-.49-.49-.97-1-1.44-1.51-.47-.52-.92-1.04-1.36-1.58-.44-.54-.87-1.09-1.28-1.64-.41-.56-.81-1.13-1.2-1.71-.39-.58-.76-1.17-1.12-1.76-.36-.6-.7-1.2-1.03-1.81-.33-.61-.64-1.23-.94-1.86-.3-.63-.58-1.26-.85-1.91-.27-.64-.52-1.29-.75-1.95-.23-.65-.45-1.32-.65-1.98-.2-.67-.39-1.34-.56-2.01-.17-.67-.32-1.35-.46-2.04s-.25-1.37-.36-2.06c-.1-.69-.19-1.38-.26-2.07-.07-.69-.12-1.39-.15-2.08C.02,43.89,0,43.2,0,42.5c0-.7,.02-1.39,.05-2.09,.03-.69,.09-1.39,.15-2.08s.15-1.38,.26-2.07c.1-.69,.22-1.37,.36-2.06s.29-1.36,.46-2.04c.17-.67,.35-1.34,.56-2.01,.2-.67,.42-1.33,.65-1.98,.23-.65,.48-1.3,.75-1.95,.27-.64,.55-1.28,.85-1.91,.3-.63,.61-1.25,.94-1.86,.33-.61,.67-1.22,1.03-1.81,.36-.6,.73-1.18,1.12-1.76,.39-.58,.79-1.15,1.2-1.71,.41-.56,.84-1.11,1.28-1.64,.44-.54,.9-1.06,1.36-1.58,.47-.52,.95-1.02,1.44-1.51,.49-.49,1-.97,1.51-1.44,.52-.47,1.04-.92,1.58-1.36s1.09-.87,1.64-1.28c.56-.41,1.13-.81,1.71-1.2,.58-.39,1.17-.76,1.76-1.12,.6-.36,1.2-.7,1.81-1.03s1.23-.64,1.86-.94c.63-.3,1.26-.58,1.91-.85,.64-.27,1.29-.52,1.95-.75,.65-.23,1.32-.45,1.98-.65,.67-.2,1.34-.39,2.01-.56,.67-.17,1.35-.32,2.04-.46,.68-.14,1.37-.25,2.06-.36,.69-.1,1.38-.19,2.07-.26,.69-.07,1.39-.12,2.08-.15C41.11,.02,41.8,0,42.5,0Z"/><g><path class="cls-2" d="M18.95,23.74c9.48-9.48,24.4-10.27,34.79-2.39"/><path class="cls-2" d="M53.74,63.64c-10.39,7.89-25.31,7.09-34.79-2.38"/><path class="cls-2" d="M57.02,49.4c-.68,1.9-1.63,3.67-2.81,5.26"/><path class="cls-2" d="M54.21,54.66c-3.73,5.05-9.73,8.33-16.49,8.33"/><path class="cls-2" d="M37.72,62.99c-5.66,0-10.78-2.29-14.5-6-.75-.75-1.45-1.57-2.07-2.43"/><path class="cls-2" d="M21.15,54.56c-.15-.2-.29-.4-.43-.6-2.21-3.27-3.5-7.22-3.5-11.46"/><path class="cls-2" d="M17.22,42.5c0-4.68,1.57-8.99,4.21-12.44"/><path class="cls-2" d="M21.43,30.06c3.74-4.9,9.65-8.06,16.29-8.06"/><path class="cls-2" d="M37.72,22c5.82,0,11.08,2.43,14.82,6.34,.48,.51,.93,1.03,1.36,1.58"/><path class="cls-2" d="M53.9,29.92c1.08,1.4,1.99,2.93,2.69,4.58"/><path class="cls-2" d="M21.43,30.06c2.36,1.14,4.78,2.01,7.3,2.6"/><path class="cls-2" d="M28.73,32.66c2.8,.67,5.73,1,8.84,1h.15"/><path class="cls-2" d="M37.72,33.66c3.25-.01,6.18-.32,8.98-1.01"/><path class="cls-2" d="M46.7,32.65c2.4-.58,4.71-1.43,7.04-2.6"/><path class="cls-2" d="M54.21,54.66c-2.42-1.23-4.84-2.15-7.38-2.78"/><path class="cls-2" d="M46.83,51.88c-2.86-.71-5.86-1.05-9.11-1.06"/><path class="cls-2" d="M37.72,50.82h-.15c-3.08,0-6.09,.37-8.96,1.06"/><path class="cls-2" d="M28.61,51.88c-2.6,.63-5.1,1.54-7.46,2.68"/><path class="cls-2" d="M21.15,54.56c-.09,.04-.19,.08-.28,.13"/><path class="cls-2" d="M47.71,38.41c-.04-.31-.08-1.12-.12-1.43-.21-1.52-.51-2.97-.89-4.33"/><path class="cls-2" d="M46.7,32.65c-1.01-3.7-2.58-6.7-4.48-8.57-1.36-1.33-2.88-2.08-4.5-2.08"/><path class="cls-2" d="M37.72,22c-3.88,0-7.25,4.31-8.99,10.66"/><path class="cls-2" d="M28.73,32.66c-.8,2.92-1.26,6.27-1.26,9.84"/><path class="cls-2" d="M27.47,42.5c0,3.38,.41,6.57,1.14,9.38"/><path class="cls-2" d="M28.61,51.88c1.02,3.95,2.66,7.15,4.67,9.09,1.34,1.29,2.85,2.02,4.44,2.02"/><path class="cls-2" d="M37.72,62.99c3.96,0,7.41-4.51,9.11-11.11"/><path class="cls-2" d="M46.83,51.88c.32-1.23,.57-2.53,.76-3.88,.04-.3,.08-1.5,.12-1.82"/><line class="cls-2" x1="47.71" y1="46.17" x2="47.71" y2="46.18"/><line class="cls-2" x1="46.25" y1="42.5" x2="37.72" y2="42.5"/><line class="cls-2" x1="37.72" y1="42.5" x2="27.47" y2="42.5"/><line class="cls-2" x1="27.47" y1="42.5" x2="17.22" y2="42.5"/><line class="cls-2" x1="17.22" y1="42.5" x2="16.59" y2="42.5"/><line class="cls-2" x1="37.72" y1="22" x2="37.72" y2="21.37"/><line class="cls-2" x1="37.72" y1="22" x2="37.72" y2="33.66"/><line class="cls-2" x1="37.72" y1="33.66" x2="37.72" y2="42.5"/><line class="cls-2" x1="37.72" y1="42.5" x2="37.72" y2="50.82"/><line class="cls-2" x1="37.72" y1="50.82" x2="37.72" y2="62.99"/><line class="cls-2" x1="37.72" y1="62.99" x2="37.72" y2="63.62"/><path class="cls-2" d="M72.89,40.95c2.14-.65,3.52-2.61,3.52-4.73,0-.47-.07-.95-.21-1.42-.24-.8-.67-1.49-1.22-2.05-1.25-1.25-3.12-1.79-4.93-1.25"/><path class="cls-2" d="M55.72,47.06l-2.48,.74c-2.06,.62-4.21-.08-5.53-1.62-.47-.54-.83-1.19-1.05-1.92l-.18-.6c-.11-.39-.19-.78-.22-1.16-.09-1.45,.41-2.84,1.34-3.89,.05-.06,.11-.11,.16-.15,.61-.64,1.37-1.11,2.26-1.38l2.48-.75"/><polyline class="cls-2" points="55.72 47.05 52.5 36.33 56.76 35.05 58.84 34.43"/><line class="cls-2" x1="59.49" y1="45.92" x2="55.72" y2="47.06"/><line class="cls-2" x1="62.06" y1="45.15" x2="60.04" y2="45.76"/><path class="cls-2" d="M72.52,41.06l1.96,6.51c.35,1.16-.79,2.21-1.91,1.76l-10.51-4.18-3.22-10.72,6.46-9.28c.69-.99,2.22-.75,2.57,.41l1.82,6.05,2.83,9.45Z"/><path class="cls-2" d="M60.04,45.76l4.78,8.65c.33,.58,.03,1.32-.62,1.52l-2.24,.67c-.48,.15-.99-.06-1.23-.5l-3.71-6.7-1.3-2.34h0l3.77-1.14,.55-.16Z"/></g></g></g></svg>